<?xml version="1.0" encoding="utf-8"?>
<!-- Generator: Adobe Illustrator 19.0.1, SVG Export Plug-In . SVG Version: 6.00 Build 0)  -->
<svg version="1.1" id="Layer_1" xmlns="http://www.w3.org/2000/svg" xmlns:xlink="http://www.w3.org/1999/xlink" x="0px" y="0px"
	 viewBox="294 -4 1199.6 800" style="enable-background:new 294 -4 1199.6 800;" xml:space="preserve">
<style type="text/css">
	.st0{fill:#288FB1;}
	.st1{opacity:0.149;fill:#3D3D3D;enable-background:new    ;}
	.st2{fill:#EAEAEA;}
	.st3{fill:#8E8E8E;}
	.st4{fill:#C1C1C1;}
	.st5{fill:#89C9E5;}
	.st6{fill:#FFFFFF;}
	.st7{fill:#F8F8F8;}
	.st8{fill:#ADADAD;}
	.st9{fill:#858E98;}
	.st10{fill:#F7F7F7;}
	.st11{fill:#C8C8CD;}
	.st12{fill:#C7C7CC;}
	.st13{fill:#8E8E93;}
	.st14{opacity:0.9;fill:#F6F6F6;enable-background:new    ;}
	.st15{opacity:0.3;enable-background:new    ;}
	.st16{fill:#E5E5EA;}
	.st17{fill:#231F20;}
	.st18{fill:none;stroke:#007AFF;}
	.st19{fill:#007AFF;}
	.st20{fill:#CDCED2;}
	.st21{fill:#FFFFFF;fill-opacity:0;}
</style>
<g id="iDevices">
	<rect x="295" y="-4" class="st0" width="1199" height="801"/>
</g>
<g id="Texting_screen">
	<g>
		<path class="st1" d="M894.5,1274.9c-181.9,0-329.4,12.8-329.4,28.6c0,15.8,147.5,28.6,329.4,28.6s329.4-12.8,329.4-28.6
			C1223.9,1287.8,1076.5,1274.9,894.5,1274.9"/>
		<path class="st2" d="M717.9,138.7h362.8c52.7,0,95.5,42.8,95.5,95.5v973.9c0,52.7-42.8,95.5-95.5,95.5H717.9
			c-52.7,0-95.5-42.8-95.5-95.5v-974C622.4,181.4,665.1,138.7,717.9,138.7z"/>
		<circle class="st3" cx="825.3" cy="224.6" r="10.5"/>
		<path class="st4" d="M899.3,1173.9c24,0,43.5,19.5,43.5,43.5s-19.5,43.5-43.5,43.5s-43.5-19.5-43.5-43.5
			S875.3,1173.9,899.3,1173.9z"/>
		<rect x="660.6" y="301" class="st5" width="477.4" height="830.7"/>
		<path class="st4" d="M868.3,214.1h105c5.8,0,10.5,4.7,10.5,10.5s-4.7,10.5-10.5,10.5h-105c-5.8,0-10.5-4.7-10.5-10.5
			S862.5,214.1,868.3,214.1z"/>
		<rect x="660.2" y="301" class="st6" width="477.8" height="830.8"/>
		<rect x="660.2" y="1077.6" class="st7" width="477.8" height="54.2"/>
		<rect x="660.2" y="1077" class="st8" width="477.8" height="0.6"/>
		<ellipse class="st9" cx="1103" cy="1104.4" rx="16.6" ry="16.2"/>
		<path class="st10" d="M1103,1108.8c2.1,0,3.8-1.7,3.8-3.7v-8.1c0-2.1-1.7-3.7-3.8-3.7s-3.8,1.7-3.8,3.7v8.1
			C1099.1,1107.1,1100.9,1108.8,1103,1108.8z"/>
		<path class="st10" d="M1108.1,1101.3v3.7l0,0c0,2.7-2.2,4.9-5,5h-0.2c-2.8-0.1-5-2.3-5-5l0,0v-3.7h-1.3v3.7l0,0
			c0,3.2,2.5,5.9,5.7,6.2v3.2h-3.8v1.2h8.9v-1.2h-3.8v-3.2c3.2-0.3,5.7-3,5.7-6.2l0,0v-3.7H1108.1z"/>
		<path class="st6" d="M736.6,1122c-3.3,0-5.9-2.6-5.9-5.8v-23c0-3.2,2.6-5.8,5.9-5.8h324.9c3.3,0,5.9,2.6,5.9,5.8v23
			c0,3.2-2.6,5.8-5.9,5.8H736.6z"/>
		<path class="st11" d="M1061.6,1087.9c3,0,5.4,2.4,5.4,5.3v23c0,2.9-2.4,5.3-5.4,5.3h-325c-3,0-5.4-2.4-5.4-5.3v-23
			c0-2.9,2.4-5.3,5.4-5.3H1061.6 M1061.6,1087h-325c-3.5,0-6.4,2.8-6.4,6.2v23c0,3.4,2.9,6.2,6.4,6.2h324.9c3.5,0,6.4-2.8,6.4-6.2
			v-23C1067.9,1089.7,1065.1,1087,1061.6,1087z"/>
		<g>
			<path class="st12" d="M744.2,1098.7c0,0.6-0.5,1.1-1.2,1.1s-1.1-0.5-1.1-1.1c0-0.7,0.5-1.2,1.2-1.2
				C743.7,1097.6,744.2,1098.1,744.2,1098.7z M742,1111.9v-10.3h1.9v10.3H742z"/>
			<path class="st12" d="M759,1105.6c-0.1-2-0.2-4.4-0.2-6.2h-0.1c-0.5,1.7-1.1,3.5-1.8,5.4l-2.6,6.9h-1.4l-2.4-6.8
				c-0.7-2-1.3-3.9-1.7-5.5l0,0c0,1.8-0.2,4.2-0.3,6.3l-0.4,6.1h-1.8l1-14.3h2.4l2.5,6.9c0.6,1.8,1.1,3.3,1.5,4.8h0.1
				c0.4-1.4,0.9-3,1.5-4.8l2.6-6.9h2.4l0.9,14.3h-1.8L759,1105.6z"/>
			<path class="st12" d="M764.7,1107.1c0,2.5,1.7,3.6,3.6,3.6c1.4,0,2.2-0.2,2.9-0.5l0.3,1.3c-0.7,0.3-1.8,0.6-3.5,0.6
				c-3.2,0-5.2-2.1-5.2-5.2s1.9-5.5,4.9-5.5c3.4,0,4.3,2.9,4.3,4.8c0,0.4,0,0.7-0.1,0.9L764.7,1107.1L764.7,1107.1z M770.3,1105.7
				c0-1.2-0.5-3-2.6-3c-1.9,0-2.8,1.7-2.9,3H770.3z"/>
			<path class="st12" d="M773.7,1109.9c0.6,0.4,1.6,0.7,2.5,0.7c1.4,0,2-0.7,2-1.5c0-0.9-0.5-1.4-2-1.9c-1.9-0.7-2.8-1.7-2.8-2.9
				c0-1.7,1.4-3,3.6-3c1.1,0,2,0.3,2.6,0.6l-0.5,1.4c-0.4-0.3-1.2-0.6-2.1-0.6c-1.1,0-1.8,0.6-1.8,1.4s0.6,1.2,2,1.7
				c1.8,0.7,2.8,1.6,2.8,3.1c0,1.8-1.4,3.1-3.9,3.1c-1.1,0-2.2-0.3-2.9-0.7L773.7,1109.9z"/>
			<path class="st12" d="M781.8,1109.9c0.6,0.4,1.6,0.7,2.5,0.7c1.4,0,2-0.7,2-1.5c0-0.9-0.5-1.4-2-1.9c-1.9-0.7-2.8-1.7-2.8-2.9
				c0-1.7,1.4-3,3.6-3c1.1,0,2,0.3,2.6,0.6l-0.5,1.4c-0.4-0.3-1.2-0.6-2.1-0.6c-1.1,0-1.8,0.6-1.8,1.4s0.6,1.2,2,1.7
				c1.8,0.7,2.8,1.6,2.8,3.1c0,1.8-1.4,3.1-3.9,3.1c-1.1,0-2.2-0.3-2.9-0.7L781.8,1109.9z"/>
			<path class="st12" d="M795.9,1111.9l-0.2-1.3h-0.1c-0.6,0.8-1.7,1.5-3.2,1.5c-2.1,0-3.2-1.5-3.2-2.9c0-2.5,2.3-3.8,6.3-3.8v-0.2
				c0-0.8-0.2-2.4-2.4-2.4c-1,0-2,0.3-2.7,0.8l-0.4-1.2c0.9-0.6,2.1-0.9,3.4-0.9c3.2,0,4,2.1,4,4.2v3.8c0,0.9,0,1.8,0.2,2.5
				L795.9,1111.9L795.9,1111.9z M795.7,1106.6c-2.1,0-4.4,0.3-4.4,2.3c0,1.2,0.8,1.8,1.8,1.8c1.4,0,2.2-0.8,2.5-1.7
				c0.1-0.2,0.1-0.4,0.1-0.6L795.7,1106.6L795.7,1106.6z"/>
			<path class="st12" d="M809.1,1101.6c0,0.7-0.1,1.6-0.1,2.8v6c0,2.4-0.5,3.8-1.5,4.7c-1,0.9-2.5,1.2-3.8,1.2s-2.6-0.3-3.5-0.8
				l0.5-1.4c0.7,0.4,1.8,0.8,3.1,0.8c2,0,3.4-1,3.4-3.6v-1.1l0,0c-0.6,1-1.7,1.7-3.3,1.7c-2.6,0-4.5-2.2-4.5-5
				c0-3.5,2.3-5.4,4.7-5.4c1.8,0,2.8,0.9,3.3,1.8l0,0l0.1-1.5h1.6V1101.6z M807.1,1105.6c0-0.3,0-0.6-0.1-0.8c-0.3-1.1-1.3-2-2.7-2
				c-1.8,0-3.1,1.5-3.1,3.9c0,2,1,3.7,3.1,3.7c1.2,0,2.2-0.7,2.6-1.9c0.1-0.3,0.2-0.7,0.2-1V1105.6z"/>
			<path class="st12" d="M812.7,1107.1c0,2.5,1.7,3.6,3.6,3.6c1.4,0,2.2-0.2,2.9-0.5l0.3,1.3c-0.7,0.3-1.8,0.6-3.5,0.6
				c-3.2,0-5.2-2.1-5.2-5.2s1.9-5.5,4.9-5.5c3.4,0,4.3,2.9,4.3,4.8c0,0.4,0,0.7-0.1,0.9L812.7,1107.1L812.7,1107.1z M818.3,1105.7
				c0-1.2-0.5-3-2.6-3c-1.9,0-2.8,1.7-2.9,3H818.3z"/>
		</g>
		<rect x="683.1" y="1094.4" class="st9" width="2.5" height="1.2"/>
		<ellipse class="st9" cx="695.2" cy="1106.3" rx="5.7" ry="5.6"/>
		<path class="st9" d="M709.2,1096.9h-5.7c-0.4,0-0.8-0.2-1.1-0.6l-1.8-2.6c-0.2-0.3-0.6-0.6-1.1-0.6h-8.8c-0.4,0-0.8,0.2-1.1,0.6
			l-1.8,2.6c-0.2,0.3-0.6,0.6-1.1,0.6H681c-1.1,0-1.9,0.8-1.9,1.9v15.6c0,1,0.9,1.9,1.9,1.9h28c1.1,0,1.9-0.8,1.9-1.9v-15.6
			C711.2,1097.8,710.3,1096.9,709.2,1096.9z M695.2,1113.4c-4,0-7.3-3.2-7.3-7.2c0-3.9,3.3-7.2,7.3-7.2s7.3,3.2,7.3,7.2
			C702.6,1110.2,699.3,1113.4,695.2,1113.4z M705.3,1100c0,0.6-0.5,1.1-1.1,1.1l0,0c-0.6,0-1.1-0.5-1.1-1.1l0,0
			c0-0.6,0.5-1.1,1.1-1.1l0,0C704.8,1098.9,705.3,1099.4,705.3,1100L705.3,1100z"/>
		<g>
			<path class="st13" d="M855.3,427h-2.9v-1h7v1h-2.9v8.2h-1.2L855.3,427L855.3,427z"/>
			<path class="st13" d="M865.6,431.8c0,2.5-1.7,3.5-3.4,3.5c-1.8,0-3.3-1.3-3.3-3.4c0-2.2,1.5-3.5,3.4-3.5
				C864.3,428.4,865.6,429.8,865.6,431.8z M860.2,431.9c0,1.5,0.9,2.5,2.1,2.5c1.2,0,2.1-1.1,2.1-2.6c0-1.1-0.6-2.5-2-2.5
				C860.9,429.3,860.2,430.6,860.2,431.9z"/>
			<path class="st13" d="M873.1,425.5v8c0,0.6,0,1.3,0.1,1.7h-1.1L872,434l0,0c-0.4,0.7-1.2,1.3-2.3,1.3c-1.6,0-2.9-1.4-2.9-3.4
				c0-2.2,1.4-3.6,3-3.6c1,0,1.7,0.5,2,1l0,0v-4h1.3V425.5z M871.9,431.3c0-0.2,0-0.4-0.1-0.5c-0.2-0.8-0.9-1.4-1.8-1.4
				c-1.3,0-2,1.1-2,2.6c0,1.3,0.7,2.5,2,2.5c0.8,0,1.6-0.5,1.8-1.4c0-0.2,0.1-0.3,0.1-0.5V431.3z"/>
			<path class="st13" d="M879,435.2l-0.1-0.8l0,0c-0.4,0.5-1.1,1-2.1,1c-1.4,0-2.1-0.9-2.1-1.9c0-1.6,1.5-2.5,4.1-2.5v-0.1
				c0-0.5-0.2-1.5-1.5-1.5c-0.6,0-1.3,0.2-1.8,0.5l-0.3-0.8c0.6-0.4,1.4-0.6,2.2-0.6c2.1,0,2.6,1.4,2.6,2.7v2.5c0,0.6,0,1.1,0.1,1.6
				H879V435.2z M878.8,431.8c-1.3,0-2.9,0.2-2.9,1.5c0,0.8,0.5,1.2,1.2,1.2c0.9,0,1.4-0.5,1.6-1.1c0-0.1,0.1-0.3,0.1-0.4
				L878.8,431.8L878.8,431.8z"/>
			<path class="st13" d="M882.4,428.6l1.5,3.9c0.2,0.4,0.3,1,0.4,1.4l0,0c0.1-0.4,0.3-0.9,0.4-1.4l1.3-3.9h1.3l-1.9,4.7
				c-0.9,2.3-1.5,3.4-2.3,4.2c-0.6,0.5-1.2,0.7-1.5,0.8l-0.3-1c0.3-0.1,0.7-0.3,1.1-0.6c0.3-0.3,0.8-0.7,1-1.3
				c0.1-0.1,0.1-0.2,0.1-0.3c0-0.1,0-0.2-0.1-0.3l-2.5-6.1h1.5V428.6z"/>
		</g>
		<g>
			<path class="st13" d="M894,427.4L894,427.4l-1.6,0.8l-0.2-0.9l2-1h1.1v8.9h-1.2L894,427.4L894,427.4z"/>
			<path class="st13" d="M904.6,430.6c0,3-1.1,4.7-3.2,4.7c-1.8,0-3-1.6-3-4.6s1.3-4.6,3.2-4.6C903.6,426.1,904.6,427.8,904.6,430.6
				z M899.7,430.8c0,2.3,0.7,3.6,1.9,3.6c1.3,0,1.9-1.4,1.9-3.7c0-2.2-0.6-3.6-1.9-3.6C900.5,427.1,899.7,428.3,899.7,430.8z"/>
			<path class="st13" d="M905.9,429.6c0-0.5,0.4-0.9,0.8-0.9c0.5,0,0.8,0.4,0.8,0.9s-0.3,0.8-0.8,0.8
				C906.3,430.5,905.9,430.1,905.9,429.6z M905.9,434.5c0-0.5,0.4-0.9,0.8-0.9c0.5,0,0.8,0.4,0.8,0.9s-0.3,0.8-0.8,0.8
				C906.3,435.3,905.9,435,905.9,434.5z"/>
			<path class="st13" d="M911.5,427.4L911.5,427.4l-1.6,0.8l-0.2-0.9l2-1h1.1v8.9h-1.2L911.5,427.4L911.5,427.4z"/>
			<path class="st13" d="M922,426.3v0.8l-4,8.1h-1.3l4-7.9l0,0h-4.5v-1H922z"/>
			<path class="st13" d="M928.4,432.3l-1,2.9h-1.3l3.2-9.2h1.5l3.2,9.2h-1.3l-1-2.9H928.4z M931.5,431.3l-0.9-2.7
				c-0.2-0.6-0.4-1.2-0.5-1.7l0,0c-0.1,0.5-0.3,1.1-0.5,1.7l-0.9,2.7H931.5z"/>
			<path class="st13" d="M943.4,431.1c-0.1-1.3-0.2-2.8-0.1-4l0,0c-0.3,1.1-0.7,2.2-1.2,3.5l-1.7,4.5h-1l-1.5-4.4
				c-0.4-1.3-0.8-2.5-1.1-3.6l0,0c0,1.2-0.1,2.7-0.2,4.1l-0.3,4h-1.2l0.7-9.2h1.6l1.6,4.5c0.4,1.1,0.7,2.2,1,3.1l0,0
				c0.2-0.9,0.6-1.9,1-3.1l1.7-4.5h1.6l0.6,9.2h-1.2L943.4,431.1z"/>
		</g>
		<rect x="660.7" y="301.1" class="st14" width="477.8" height="108.4"/>
		<rect x="660.7" y="409.5" class="st15" width="477.8" height="0.8"/>
		<path class="st16" d="M895.6,448.4H701.2c-12.2,0-22.2,9.9-22.2,22.2v31.7c0,5.3-3.1,9.9-7.6,12c5.9-0.1,11.4-1.8,16.1-4.7
			c3.8,3,8.5,4.7,13.7,4.7h194.4c12.2,0,22.2-9.9,22.2-22.2v-21.5C917.8,458.3,907.8,448.4,895.6,448.4z"/>
		<g>
			<path class="st17" d="M699.1,477.5v-6.2l-4.6-8.4h2.1l2,4c0.6,1.1,1,2,1.4,3l0,0c0.4-0.9,0.9-1.9,1.5-3l2.1-4h2.1l-4.9,8.3v6.2
				h-1.7V477.5z"/>
			<path class="st17" d="M714.8,472.2c0,3.9-2.7,5.5-5.2,5.5c-2.8,0-5-2.1-5-5.4c0-3.5,2.3-5.5,5.2-5.5
				C712.8,466.9,714.8,469,714.8,472.2z M706.5,472.3c0,2.3,1.3,4,3.2,4c1.8,0,3.2-1.7,3.2-4c0-1.8-0.9-4-3.1-4
				S706.5,470.4,706.5,472.3z"/>
			<path class="st17" d="M725.4,474.7c0,1.1,0,2,0.1,2.8h-1.7l-0.1-1.7l0,0c-0.5,0.8-1.6,1.9-3.4,1.9c-1.6,0-3.6-0.9-3.6-4.6V467
				h1.9v5.8c0,2,0.6,3.3,2.3,3.3c1.3,0,2.2-0.9,2.5-1.7c0.1-0.3,0.2-0.6,0.2-1V467h1.9v7.7H725.4z"/>
			<path class="st17" d="M728,470.4c0-1.2,0-2.3-0.1-3.3h1.7l0.1,2h0.1c0.5-1.4,1.6-2.3,2.9-2.3c0.2,0,0.4,0,0.5,0.1v1.8
				c-0.2,0-0.4-0.1-0.6-0.1c-1.3,0-2.3,1-2.5,2.4c0,0.3-0.1,0.6-0.1,0.9v5.6h-1.9v-7.1H728z"/>
			<path class="st17" d="M738.4,475.2c0.8,0.5,2.1,0.9,3.4,0.9c1.9,0,3-1,3-2.5c0-1.4-0.8-2.1-2.7-2.9c-2.4-0.8-3.8-2.1-3.8-4.1
				c0-2.3,1.9-3.9,4.7-3.9c1.5,0,2.6,0.3,3.2,0.7l-0.5,1.5c-0.5-0.3-1.4-0.7-2.8-0.7c-2,0-2.7,1.2-2.7,2.2c0,1.4,0.9,2,2.9,2.8
				c2.5,0.9,3.7,2.1,3.7,4.3c0,2.2-1.7,4.2-5.1,4.2c-1.4,0-2.9-0.4-3.7-0.9L738.4,475.2z"/>
			<path class="st17" d="M748.7,462.2h1.9v6.5l0,0c0.3-0.5,0.8-1,1.4-1.3c0.6-0.3,1.2-0.5,1.9-0.5c1.4,0,3.6,0.9,3.6,4.5v6.2h-1.9
				v-6c0-1.7-0.6-3.1-2.4-3.1c-1.2,0-2.2,0.9-2.5,1.9c-0.1,0.3-0.1,0.5-0.1,0.9v6.3h-1.9V462.2z"/>
			<path class="st17" d="M762.3,464.2c0,0.6-0.5,1.2-1.2,1.2s-1.1-0.5-1.1-1.2s0.5-1.2,1.2-1.2C761.8,463,762.3,463.5,762.3,464.2z
				 M760.2,477.5v-10.4h1.9v10.4H760.2z"/>
			<path class="st17" d="M764.7,470.5c0-1.3,0-2.4-0.1-3.4h1.7l0.1,1.8l0,0c0.8-1.3,2-2,3.7-2c2.5,0,4.4,2.1,4.4,5.3
				c0,3.7-2.3,5.6-4.7,5.6c-1.4,0-2.6-0.6-3.2-1.6l0,0v5.7h-1.9V470.5z M766.5,473.3c0,0.3,0,0.5,0.1,0.8c0.3,1.3,1.5,2.2,2.8,2.2
				c2,0,3.2-1.6,3.2-4c0-2.1-1.1-3.9-3.1-3.9c-1.3,0-2.5,0.9-2.9,2.3c-0.1,0.2-0.1,0.5-0.1,0.8V473.3z"/>
			<path class="st17" d="M782.2,477.5l-0.2-1.3h-0.1c-0.6,0.8-1.7,1.6-3.2,1.6c-2.1,0-3.2-1.5-3.2-3c0-2.5,2.2-3.9,6.3-3.9v-0.2
				c0-0.9-0.2-2.4-2.4-2.4c-1,0-2,0.3-2.7,0.8l-0.4-1.2c0.9-0.6,2.1-0.9,3.4-0.9c3.2,0,4,2.2,4,4.3v3.9c0,0.9,0,1.8,0.2,2.5h-1.7
				V477.5z M781.9,472.2c-2.1,0-4.4,0.3-4.4,2.3c0,1.2,0.8,1.8,1.8,1.8c1.4,0,2.2-0.9,2.5-1.7c0.1-0.2,0.1-0.4,0.1-0.6L781.9,472.2
				L781.9,472.2z"/>
			<path class="st17" d="M786.3,470.4c0-1.2,0-2.3-0.1-3.3h1.7l0.1,2h0.1c0.5-1.4,1.6-2.3,2.9-2.3c0.2,0,0.4,0,0.5,0.1v1.8
				c-0.2,0-0.4-0.1-0.6-0.1c-1.3,0-2.3,1-2.5,2.4c0,0.3-0.1,0.6-0.1,0.9v5.6h-1.9v-7.1H786.3z"/>
			<path class="st17" d="M802,472.2c0,3.9-2.7,5.5-5.2,5.5c-2.8,0-5-2.1-5-5.4c0-3.5,2.3-5.5,5.2-5.5C800,466.9,802,469,802,472.2z
				 M793.8,472.3c0,2.3,1.3,4,3.2,4c1.8,0,3.2-1.7,3.2-4c0-1.8-0.9-4-3.1-4S793.8,470.4,793.8,472.3z"/>
			<path class="st17" d="M813.4,472.2c0,3.9-2.7,5.5-5.2,5.5c-2.8,0-5-2.1-5-5.4c0-3.5,2.3-5.5,5.2-5.5
				C811.3,466.9,813.4,469,813.4,472.2z M805.1,472.3c0,2.3,1.3,4,3.2,4c1.8,0,3.2-1.7,3.2-4c0-1.8-0.9-4-3.1-4
				S805.1,470.4,805.1,472.3z"/>
			<path class="st17" d="M819.4,463.2c0.9-0.2,2.1-0.3,3.6-0.3c1.9,0,3.2,0.4,4.1,1.2c0.8,0.7,1.3,1.7,1.3,3s-0.4,2.3-1.1,3.1
				c-1,1.1-2.6,1.6-4.4,1.6c-0.6,0-1.1,0-1.5-0.1v5.8h-2V463.2z M821.2,470.2c0.4,0.1,0.9,0.2,1.5,0.2c2.3,0,3.6-1.1,3.6-3.1
				c0-1.9-1.4-2.8-3.4-2.8c-0.8,0-1.4,0.1-1.8,0.2v5.5H821.2z"/>
			<path class="st17" d="M832.2,463v14.5h-1.9V463H832.2z"/>
			<path class="st17" d="M835,477.5V463h2l4.7,7.3c1.1,1.7,1.9,3.2,2.6,4.7l0,0c-0.2-1.9-0.2-3.7-0.2-6v-6h1.8v14.5H844l-4.6-7.4
				c-1-1.6-2-3.3-2.7-4.8h-0.1c0.1,1.8,0.2,3.6,0.2,6v6.2L835,477.5L835,477.5z"/>
			<path class="st17" d="M854.7,464.2c0,0.6-0.5,1.2-1.2,1.2s-1.1-0.5-1.1-1.2s0.5-1.2,1.2-1.2S854.7,463.5,854.7,464.2z
				 M852.6,477.5v-10.4h1.9v10.4H852.6z"/>
			<path class="st17" d="M856.9,475.6c0.6,0.4,1.5,0.8,2.5,0.8c1.4,0,2-0.7,2-1.5c0-0.9-0.5-1.4-1.9-1.9c-1.9-0.7-2.8-1.7-2.8-3
				c0-1.7,1.4-3.1,3.6-3.1c1.1,0,2,0.3,2.6,0.6l-0.5,1.4c-0.4-0.3-1.2-0.6-2.1-0.6c-1.1,0-1.7,0.6-1.7,1.4c0,0.9,0.6,1.2,2,1.8
				c1.8,0.7,2.7,1.6,2.7,3.1c0,1.8-1.4,3.1-3.9,3.1c-1.1,0-2.2-0.3-2.9-0.7L856.9,475.6z"/>
		</g>
		<g>
			<path class="st17" d="M695.2,499.1v-1.2l1.5-1.4c3.6-3.4,5.2-5.2,5.2-7.3c0-1.4-0.7-2.7-2.8-2.7c-1.3,0-2.3,0.6-3,1.2l-0.6-1.3
				c1-0.8,2.3-1.4,4-1.4c3,0,4.3,2.1,4.3,4.1c0,2.6-1.9,4.7-4.8,7.5l-1.1,1l0,0h6.3v1.6L695.2,499.1L695.2,499.1z"/>
			<path class="st17" d="M715.1,491.9c0,4.8-1.8,7.4-4.9,7.4c-2.7,0-4.6-2.6-4.6-7.2c0-4.7,2-7.3,4.9-7.3
				C713.4,484.8,715.1,487.4,715.1,491.9z M707.5,492.1c0,3.6,1.1,5.7,2.8,5.7c1.9,0,2.9-2.3,2.9-5.8c0-3.4-0.9-5.7-2.8-5.7
				C708.7,486.3,707.5,488.3,707.5,492.1z"/>
			<path class="st17" d="M722.2,499.1v-3.8h-6.5V494l6.2-8.9h2v8.7h2v1.5h-2v3.8H722.2z M722.2,493.8v-4.7c0-0.7,0-1.5,0.1-2.2h-0.1
				c-0.4,0.8-0.8,1.4-1.2,2.1l-3.4,4.8l0,0L722.2,493.8L722.2,493.8z"/>
			<path class="st17" d="M732.7,499.1v-3.8h-6.5V494l6.2-8.9h2v8.7h2v1.5h-2v3.8H732.7z M732.7,493.8v-4.7c0-0.7,0-1.5,0.1-2.2h-0.1
				c-0.4,0.8-0.8,1.4-1.2,2.1l-3.4,4.8l0,0L732.7,493.8L732.7,493.8z"/>
			<path class="st17" d="M737.5,497.9c0-0.8,0.5-1.4,1.3-1.4s1.3,0.6,1.3,1.4c0,0.8-0.5,1.4-1.3,1.4
				C738,499.3,737.5,498.7,737.5,497.9z"/>
		</g>
		<path class="st16" d="M892.8,564H698.4c-12.2,0-22.2,9.9-22.2,22.2v31.7c0,5.3-3.1,9.9-7.6,12c5.9-0.1,11.4-1.8,16.1-4.7
			c3.8,3,8.5,4.7,13.7,4.7h194.4c12.2,0,22.2-9.9,22.2-22.2v-21.5C915,573.9,905,564,892.8,564z"/>
		<g>
			<path class="st17" d="M696.3,593.1v-6.2l-4.6-8.4h2.1l2,4c0.6,1.1,1,2,1.4,3l0,0c0.4-0.9,0.9-1.9,1.5-3l2.1-4h2.1l-4.9,8.3v6.2
				h-1.7V593.1z"/>
			<path class="st17" d="M712,587.8c0,3.9-2.7,5.5-5.2,5.5c-2.8,0-5-2.1-5-5.4c0-3.5,2.3-5.5,5.2-5.5
				C709.9,582.4,712,584.6,712,587.8z M703.7,587.9c0,2.3,1.3,4,3.2,4c1.8,0,3.2-1.7,3.2-4c0-1.8-0.9-4-3.1-4
				S703.7,585.9,703.7,587.9z"/>
			<path class="st17" d="M722.6,590.2c0,1.1,0,2,0.1,2.8H721l-0.1-1.7l0,0c-0.5,0.8-1.6,1.9-3.4,1.9c-1.6,0-3.6-0.9-3.6-4.6v-6.1
				h1.9v5.8c0,2,0.6,3.3,2.3,3.3c1.3,0,2.2-0.9,2.5-1.7c0.1-0.3,0.2-0.6,0.2-1v-6.4h1.9v7.7H722.6z"/>
			<path class="st17" d="M725.2,585.9c0-1.2,0-2.3-0.1-3.3h1.7l0.1,2h0.1c0.5-1.4,1.6-2.3,2.9-2.3c0.2,0,0.4,0,0.5,0.1v1.8
				c-0.2,0-0.4-0.1-0.6-0.1c-1.3,0-2.3,1-2.5,2.4c0,0.3-0.1,0.6-0.1,0.9v5.6h-1.9v-7.1H725.2z"/>
			<path class="st17" d="M735.6,590.8c0.8,0.5,2.1,0.9,3.4,0.9c1.9,0,3-1,3-2.5c0-1.4-0.8-2.1-2.7-2.9c-2.4-0.8-3.8-2.1-3.8-4.1
				c0-2.3,1.9-3.9,4.7-3.9c1.5,0,2.6,0.3,3.2,0.7l-0.5,1.5c-0.5-0.3-1.4-0.7-2.8-0.7c-2,0-2.7,1.2-2.7,2.2c0,1.4,0.9,2,2.9,2.8
				c2.5,0.9,3.7,2.1,3.7,4.3s-1.7,4.2-5.1,4.2c-1.4,0-2.9-0.4-3.7-0.9L735.6,590.8z"/>
			<path class="st17" d="M745.9,577.8h1.9v6.5l0,0c0.3-0.5,0.8-1,1.4-1.3c0.6-0.3,1.2-0.5,1.9-0.5c1.4,0,3.6,0.9,3.6,4.5v6.2h-1.9
				v-6c0-1.7-0.6-3.1-2.4-3.1c-1.2,0-2.2,0.9-2.5,1.9c-0.1,0.3-0.1,0.5-0.1,0.9v6.3h-1.9V577.8z"/>
			<path class="st17" d="M759.4,579.7c0,0.6-0.5,1.2-1.2,1.2s-1.1-0.5-1.1-1.2s0.5-1.2,1.2-1.2C759,578.5,759.4,579.1,759.4,579.7z
				 M757.3,593.1v-10.4h1.9v10.4H757.3z"/>
			<path class="st17" d="M761.9,586.1c0-1.3,0-2.4-0.1-3.4h1.7l0.1,1.8l0,0c0.8-1.3,2-2,3.7-2c2.5,0,4.4,2.1,4.4,5.3
				c0,3.7-2.3,5.6-4.7,5.6c-1.4,0-2.6-0.6-3.2-1.6l0,0v5.7h-1.9V586.1z M763.7,588.8c0,0.3,0,0.5,0.1,0.8c0.3,1.3,1.5,2.2,2.8,2.2
				c2,0,3.2-1.6,3.2-4c0-2.1-1.1-3.9-3.1-3.9c-1.3,0-2.5,0.9-2.9,2.3c-0.1,0.2-0.1,0.5-0.1,0.8V588.8z"/>
			<path class="st17" d="M779.4,593.1l-0.2-1.3h-0.1c-0.6,0.8-1.7,1.6-3.2,1.6c-2.1,0-3.2-1.5-3.2-3c0-2.5,2.2-3.9,6.3-3.9v-0.2
				c0-0.9-0.2-2.4-2.4-2.4c-1,0-2,0.3-2.7,0.8l-0.4-1.2c0.9-0.6,2.1-0.9,3.4-0.9c3.2,0,4,2.2,4,4.3v3.9c0,0.9,0,1.8,0.2,2.5h-1.7
				V593.1z M779.1,587.8c-2.1,0-4.4,0.3-4.4,2.3c0,1.2,0.8,1.8,1.8,1.8c1.4,0,2.2-0.9,2.5-1.7c0.1-0.2,0.1-0.4,0.1-0.6L779.1,587.8
				L779.1,587.8z"/>
			<path class="st17" d="M783.5,585.9c0-1.2,0-2.3-0.1-3.3h1.7l0.1,2h0.1c0.5-1.4,1.6-2.3,2.9-2.3c0.2,0,0.4,0,0.5,0.1v1.8
				c-0.2,0-0.4-0.1-0.6-0.1c-1.3,0-2.3,1-2.5,2.4c0,0.3-0.1,0.6-0.1,0.9v5.6h-1.9v-7.1H783.5z"/>
			<path class="st17" d="M799.2,587.8c0,3.9-2.7,5.5-5.2,5.5c-2.8,0-5-2.1-5-5.4c0-3.5,2.3-5.5,5.2-5.5
				C797.2,582.4,799.2,584.6,799.2,587.8z M791,587.9c0,2.3,1.3,4,3.2,4c1.8,0,3.2-1.7,3.2-4c0-1.8-0.9-4-3.1-4S791,585.9,791,587.9
				z"/>
			<path class="st17" d="M810.6,587.8c0,3.9-2.7,5.5-5.2,5.5c-2.8,0-5-2.1-5-5.4c0-3.5,2.3-5.5,5.2-5.5
				C808.5,582.4,810.6,584.6,810.6,587.8z M802.3,587.9c0,2.3,1.3,4,3.2,4c1.8,0,3.2-1.7,3.2-4c0-1.8-0.9-4-3.1-4
				S802.3,585.9,802.3,587.9z"/>
			<path class="st17" d="M816.6,578.7c0.9-0.2,2.1-0.3,3.6-0.3c1.9,0,3.2,0.4,4.1,1.2c0.8,0.7,1.3,1.7,1.3,3s-0.4,2.3-1.1,3.1
				c-1,1.1-2.6,1.6-4.4,1.6c-0.6,0-1.1,0-1.5-0.1v5.8h-1.9L816.6,578.7L816.6,578.7z M818.4,585.7c0.4,0.1,0.9,0.2,1.5,0.2
				c2.3,0,3.6-1.1,3.6-3.1c0-1.9-1.4-2.8-3.4-2.8c-0.8,0-1.4,0.1-1.8,0.2v5.5H818.4z"/>
			<path class="st17" d="M829.4,578.6v14.5h-1.9v-14.5H829.4z"/>
			<path class="st17" d="M832.2,593.1v-14.5h2l4.7,7.3c1.1,1.7,1.9,3.2,2.6,4.7l0,0c-0.2-1.9-0.2-3.7-0.2-6v-6.1h1.8V593h-1.9
				l-4.6-7.4c-1-1.6-2-3.3-2.7-4.8h-0.1c0.1,1.8,0.2,3.6,0.2,6v6.2L832.2,593.1L832.2,593.1z"/>
			<path class="st17" d="M851.9,579.7c0,0.6-0.5,1.2-1.2,1.2s-1.1-0.5-1.1-1.2s0.5-1.2,1.2-1.2C851.5,578.5,851.9,579.1,851.9,579.7
				z M849.8,593.1v-10.4h1.9v10.4H849.8z"/>
			<path class="st17" d="M854.1,591.1c0.6,0.4,1.5,0.8,2.5,0.8c1.4,0,2-0.7,2-1.5c0-0.9-0.5-1.4-1.9-1.9c-1.9-0.7-2.8-1.7-2.8-3
				c0-1.7,1.4-3.1,3.6-3.1c1.1,0,2,0.3,2.6,0.6l-0.5,1.4c-0.4-0.3-1.2-0.6-2.1-0.6c-1.1,0-1.7,0.6-1.7,1.4c0,0.9,0.6,1.2,2,1.8
				c1.8,0.7,2.7,1.6,2.7,3.1c0,1.8-1.4,3.1-3.9,3.1c-1.1,0-2.2-0.3-2.9-0.7L854.1,591.1z"/>
		</g>
		<g>
			<path class="st17" d="M692.9,612.4c0.5,0.3,1.8,0.9,3.1,0.9c2.4,0,3.2-1.5,3.2-2.7c0-2-1.8-2.8-3.6-2.8h-1.1v-1.4h1.1
				c1.4,0,3.1-0.7,3.1-2.4c0-1.1-0.7-2.1-2.5-2.1c-1.1,0-2.2,0.5-2.8,0.9l-0.5-1.4c0.7-0.5,2.2-1.1,3.7-1.1c2.8,0,4,1.6,4,3.3
				c0,1.4-0.9,2.7-2.6,3.3l0,0c1.7,0.3,3.1,1.6,3.1,3.6c0,2.2-1.7,4.2-5.1,4.2c-1.6,0-2.9-0.5-3.6-0.9L692.9,612.4z"/>
			<path class="st17" d="M704,613.3c0.4,0,0.9,0,1.5-0.1c1.1-0.2,2.1-0.6,2.9-1.4c0.9-0.8,1.6-2.1,1.9-3.7h-0.1
				c-0.8,0.9-1.9,1.5-3.3,1.5c-2.5,0-4.1-1.9-4.1-4.3c0-2.6,1.9-5,4.8-5c2.9,0,4.6,2.3,4.6,5.9c0,3.1-1,5.2-2.4,6.6
				c-1.1,1.1-2.6,1.7-4.1,1.9c-0.7,0.1-1.3,0.1-1.7,0.1L704,613.3L704,613.3z M704.7,605.2c0,1.7,1.1,3,2.7,3c1.3,0,2.3-0.6,2.8-1.5
				c0.1-0.2,0.2-0.4,0.2-0.7c0-2.4-0.9-4.2-2.9-4.2C705.9,601.8,704.7,603.2,704.7,605.2z"/>
			<path class="st17" d="M717.6,602.4L717.6,602.4l-2.5,1.3l-0.4-1.4l3.1-1.6h1.6v14h-1.8L717.6,602.4L717.6,602.4z"/>
			<path class="st17" d="M733.1,600.6v1.2l-6.1,12.7h-2l6.1-12.4l0,0h-6.8v-1.6L733.1,600.6L733.1,600.6z"/>
			<path class="st17" d="M734.7,613.5c0-0.8,0.5-1.4,1.3-1.4s1.3,0.6,1.3,1.4c0,0.8-0.5,1.4-1.3,1.4
				C735.2,614.8,734.7,614.3,734.7,613.5z"/>
		</g>
		<g>
			<path class="st13" d="M855.9,540.6H853v-1h7v1h-2.9v8.2h-1.2L855.9,540.6L855.9,540.6z"/>
			<path class="st13" d="M866.2,545.5c0,2.5-1.7,3.5-3.4,3.5c-1.8,0-3.3-1.3-3.3-3.4c0-2.2,1.5-3.5,3.4-3.5
				C864.9,542.1,866.2,543.5,866.2,545.5z M860.9,545.6c0,1.5,0.9,2.5,2.1,2.5c1.2,0,2.1-1.1,2.1-2.6c0-1.1-0.6-2.5-2-2.5
				C861.5,543,860.9,544.3,860.9,545.6z"/>
			<path class="st13" d="M873.7,539.1v8c0,0.6,0,1.3,0.1,1.7h-1.1l-0.1-1.2l0,0c-0.4,0.7-1.2,1.3-2.3,1.3c-1.6,0-2.9-1.4-2.9-3.4
				c0-2.2,1.4-3.6,3-3.6c1,0,1.7,0.5,2,1l0,0v-4h1.3V539.1z M872.5,544.9c0-0.2,0-0.4-0.1-0.5c-0.2-0.8-0.9-1.4-1.8-1.4
				c-1.3,0-2,1.1-2,2.6c0,1.3,0.7,2.5,2,2.5c0.8,0,1.6-0.5,1.8-1.4c0-0.2,0.1-0.3,0.1-0.5V544.9z"/>
			<path class="st13" d="M879.6,548.9l-0.1-0.8l0,0c-0.4,0.5-1.1,1-2.1,1c-1.4,0-2.1-0.9-2.1-1.9c0-1.6,1.5-2.5,4.1-2.5v-0.1
				c0-0.5-0.2-1.5-1.5-1.5c-0.6,0-1.3,0.2-1.8,0.5l-0.3-0.8c0.6-0.4,1.4-0.6,2.2-0.6c2.1,0,2.6,1.4,2.6,2.7v2.5c0,0.6,0,1.1,0.1,1.6
				h-1.1V548.9z M879.4,545.5c-1.3,0-2.9,0.2-2.9,1.5c0,0.8,0.5,1.2,1.2,1.2c0.9,0,1.4-0.5,1.6-1.1c0-0.1,0.1-0.3,0.1-0.4
				L879.4,545.5L879.4,545.5z"/>
			<path class="st13" d="M883,542.2l1.5,3.9c0.2,0.4,0.3,1,0.4,1.4l0,0c0.1-0.4,0.3-0.9,0.4-1.4l1.3-3.9h1.3l-1.9,4.7
				c-0.9,2.3-1.5,3.4-2.3,4.2c-0.6,0.5-1.2,0.7-1.5,0.8l-0.3-1c0.3-0.1,0.7-0.3,1.1-0.6c0.3-0.3,0.8-0.7,1-1.3
				c0.1-0.1,0.1-0.2,0.1-0.3s0-0.2-0.1-0.3l-2.5-6.1h1.5V542.2z"/>
		</g>
		<g>
			<path class="st13" d="M894.6,541.1L894.6,541.1l-1.6,0.8l-0.2-0.9l2-1h1.1v8.9h-1.2L894.6,541.1L894.6,541.1z"/>
			<path class="st13" d="M899.2,548.9v-0.7l1-0.9c2.3-2.2,3.4-3.3,3.4-4.7c0-0.9-0.4-1.7-1.8-1.7c-0.8,0-1.5,0.4-1.9,0.8l-0.4-0.8
				c0.6-0.5,1.5-0.9,2.6-0.9c2,0,2.8,1.3,2.8,2.6c0,1.6-1.2,3-3.1,4.8l-0.7,0.7l0,0h4.1v1h-6V548.9z"/>
			<path class="st13" d="M906.6,543.3c0-0.5,0.4-0.9,0.8-0.9c0.5,0,0.8,0.4,0.8,0.9s-0.3,0.8-0.8,0.8
				C906.9,544.2,906.6,543.8,906.6,543.3z M906.6,548.2c0-0.5,0.4-0.9,0.8-0.9c0.5,0,0.8,0.4,0.8,0.9s-0.3,0.8-0.8,0.8
				S906.6,548.6,906.6,548.2z"/>
			<path class="st13" d="M912.1,541.1L912.1,541.1l-1.6,0.8l-0.2-0.9l2-1h1.1v8.9h-1.2L912.1,541.1L912.1,541.1z"/>
			<path class="st13" d="M917,547.5c0.4,0.2,1.2,0.6,2,0.6c1.6,0,2.1-1,2.1-1.7c0-1.2-1.2-1.8-2.4-1.8H918v-0.9h0.7
				c0.9,0,2-0.5,2-1.5c0-0.7-0.5-1.3-1.6-1.3c-0.7,0-1.4,0.3-1.8,0.6l-0.3-0.9c0.5-0.3,1.4-0.7,2.4-0.7c1.8,0,2.6,1,2.6,2.1
				c0,0.9-0.6,1.7-1.7,2.1l0,0c1.1,0.2,2,1,2,2.3c0,1.4-1.1,2.7-3.3,2.7c-1,0-1.9-0.3-2.4-0.6L917,547.5z"/>
			<path class="st13" d="M927.4,539.7c0.6-0.1,1.4-0.2,2.3-0.2c1.2,0,2.1,0.3,2.7,0.8c0.5,0.4,0.8,1.1,0.8,1.9c0,0.8-0.3,1.5-0.7,2
				c-0.6,0.7-1.7,1-2.9,1c-0.4,0-0.7,0-1-0.1v3.7h-1.2V539.7z M928.7,544.2c0.3,0.1,0.6,0.1,1,0.1c1.5,0,2.4-0.7,2.4-2
				c0-1.2-0.9-1.8-2.2-1.8c-0.5,0-0.9,0-1.1,0.1v3.6H928.7z"/>
			<path class="st13" d="M942.8,544.8c-0.1-1.3-0.2-2.8-0.1-4l0,0c-0.3,1.1-0.7,2.2-1.2,3.5l-1.7,4.5h-0.9l-1.5-4.4
				c-0.4-1.3-0.8-2.5-1.1-3.6l0,0c0,1.2-0.1,2.7-0.2,4.1l-0.3,4h-1.2l0.7-9.2h1.6l1.6,4.5c0.4,1.1,0.7,2.2,1,3.1l0,0
				c0.2-0.9,0.6-1.9,1-3.1l1.7-4.5h1.6l0.6,9.2h-1.2L942.8,544.8z"/>
		</g>
		<g>
			<path d="M874.7,400.5c0.6,0.4,1.5,0.7,2.5,0.7c1.4,0,2.2-0.7,2.2-1.8c0-1-0.6-1.6-2-2.1c-1.7-0.6-2.8-1.5-2.8-3
				c0-1.7,1.4-2.9,3.4-2.9c1.1,0,1.9,0.3,2.4,0.5L880,393c-0.3-0.2-1.1-0.5-2-0.5c-1.5,0-2,0.9-2,1.6c0,1,0.6,1.5,2.1,2.1
				c1.8,0.7,2.7,1.6,2.7,3.1c0,1.6-1.2,3.1-3.7,3.1c-1,0-2.1-0.3-2.7-0.7L874.7,400.5z"/>
			<path d="M882.7,390.9h1.4v4.8l0,0c0.2-0.4,0.6-0.7,1-1c0.4-0.2,0.9-0.4,1.4-0.4c1,0,2.7,0.6,2.7,3.3v4.5h-1.4v-4.4
				c0-1.2-0.5-2.3-1.8-2.3c-0.9,0-1.6,0.6-1.9,1.4c-0.1,0.2-0.1,0.4-0.1,0.7v4.6h-1.4L882.7,390.9L882.7,390.9z"/>
			<path d="M893,392.3c0,0.5-0.3,0.9-0.9,0.9c-0.5,0-0.8-0.4-0.8-0.9s0.4-0.9,0.9-0.9C892.6,391.5,893,391.8,893,392.3z
				 M891.4,402.1v-7.6h1.4v7.6H891.4z"/>
			<path d="M895.1,397c0-1,0-1.8-0.1-2.5h1.2l0.1,1.3l0,0c0.6-0.9,1.5-1.5,2.7-1.5c1.8,0,3.2,1.6,3.2,3.9c0,2.7-1.7,4.1-3.5,4.1
				c-1,0-1.9-0.4-2.4-1.2l0,0v4.2h-1.4V397H895.1z M896.5,399c0,0.2,0,0.4,0.1,0.6c0.3,1,1.1,1.6,2.1,1.6c1.5,0,2.3-1.2,2.3-3
				c0-1.5-0.8-2.8-2.3-2.8c-0.9,0-1.8,0.7-2.1,1.7c0,0.2-0.1,0.4-0.1,0.6V399z"/>
			<path d="M908.3,402.1l-0.1-1l0,0c-0.4,0.6-1.2,1.1-2.3,1.1c-1.5,0-2.3-1.1-2.3-2.2c0-1.8,1.6-2.9,4.6-2.8V397
				c0-0.6-0.2-1.8-1.7-1.8c-0.7,0-1.5,0.2-2,0.6l-0.3-0.9c0.6-0.4,1.5-0.7,2.5-0.7c2.3,0,2.9,1.6,2.9,3.1v2.9c0,0.7,0,1.3,0.1,1.8
				h-1.4V402.1z M908.1,398.2c-1.5,0-3.2,0.2-3.2,1.7c0,0.9,0.6,1.3,1.3,1.3c1,0,1.6-0.6,1.8-1.3c0-0.1,0.1-0.3,0.1-0.4L908.1,398.2
				L908.1,398.2z"/>
			<path d="M911.7,396.9c0-0.9,0-1.7-0.1-2.4h1.2v1.5h0.1c0.3-1,1.2-1.7,2.1-1.7c0.2,0,0.3,0,0.4,0v1.3c-0.1,0-0.3,0-0.5,0
				c-1,0-1.7,0.7-1.9,1.8c0,0.2-0.1,0.4-0.1,0.6v4.1h-1.4v-5.2H911.7z"/>
			<path d="M923.6,398.2c0,2.8-2,4.1-3.8,4.1c-2.1,0-3.7-1.5-3.7-3.9c0-2.6,1.7-4.1,3.8-4.1C922.2,394.3,923.6,395.9,923.6,398.2z
				 M917.6,398.3c0,1.7,1,2.9,2.3,2.9s2.3-1.2,2.3-3c0-1.3-0.6-2.9-2.3-2.9C918.3,395.4,917.6,396.9,917.6,398.3z"/>
			<path d="M932.3,398.2c0,2.8-2,4.1-3.8,4.1c-2.1,0-3.7-1.5-3.7-3.9c0-2.6,1.7-4.1,3.8-4.1C930.8,394.3,932.3,395.9,932.3,398.2z
				 M926.3,398.3c0,1.7,1,2.9,2.3,2.9s2.3-1.2,2.3-3c0-1.3-0.6-2.9-2.3-2.9C927,395.4,926.3,396.9,926.3,398.3z"/>
		</g>
		<circle class="st18" cx="1113.4" cy="361.3" r="14.5"/>
		<path class="st19" d="M1112,367.9v-9.2h-1.3v-1.3h3.9v0.7v9.9h1.3v1.3h-5.3V368h1.4V367.9z M1113.4,356.1c0.9,0,1.6-0.7,1.6-1.6
			s-0.7-1.6-1.6-1.6s-1.6,0.7-1.6,1.6C1111.7,355.3,1112.5,356.1,1113.4,356.1z"/>
		<circle class="st20" cx="902.9" cy="357.4" r="26.3"/>
		<polygon class="st19" points="685.7,346.9 671.3,360.7 685.7,374.5 688.4,371.9 676.7,360.7 688.4,349.5 		"/>
		<g>
			<path class="st6" d="M886.5,366.1c1.4,0.9,3.4,1.6,5.6,1.6c3.2,0,5-1.7,5-4.1c0-2.2-1.3-3.5-4.5-4.8c-3.9-1.4-6.4-3.4-6.4-6.8
				c0-3.7,3.1-6.5,7.8-6.5c2.5,0,4.2,0.6,5.3,1.2l-0.9,2.5c-0.8-0.4-2.4-1.1-4.6-1.1c-3.3,0-4.5,2-4.5,3.6c0,2.2,1.5,3.4,4.8,4.6
				c4.1,1.6,6.1,3.5,6.1,7.1c0,3.7-2.7,6.9-8.4,6.9c-2.3,0-4.9-0.7-6.1-1.5L886.5,366.1z"/>
			<path class="st6" d="M904.6,346.2c1.6-0.3,3.8-0.5,6-0.5c3.3,0,5.5,0.6,7,2c1.2,1.1,1.9,2.7,1.9,4.6c0,3.2-2,5.3-4.5,6.1v0.1
				c1.9,0.6,3,2.4,3.5,4.9c0.8,3.4,1.4,5.7,1.9,6.6h-3.2c-0.4-0.7-0.9-2.7-1.6-5.7c-0.7-3.3-2-4.6-4.8-4.7h-2.9V370h-3.1v-23.8
				H904.6z M907.7,357.1h3.2c3.3,0,5.4-1.8,5.4-4.6c0-3.1-2.2-4.5-5.5-4.5c-1.5,0-2.6,0.1-3.1,0.3L907.7,357.1L907.7,357.1z"/>
		</g>
		<rect x="661.1" y="301" class="st21" width="476.9" height="25.4"/>
		<path d="M1131,314c0,1.2-0.7,2.2-1.9,2.2v-4.5C1130.3,311.8,1131,312.8,1131,314z M1128.5,309.9v8.3l0,0c0,1.1-0.9,1.9-1.9,1.9
			h-24.8c-1.1,0-1.9-0.8-1.9-1.9l0,0v-8.3c0-1.1,0.9-1.9,1.9-1.9h24.8C1127.6,308,1128.5,308.8,1128.5,309.9z M1101.8,308.6
			c-0.7,0-1.3,0.6-1.3,1.3v8.3c0,0.7,0.6,1.3,1.3,1.3h24.8c0.7,0,1.3-0.6,1.3-1.3v-8.3c0-0.7-0.6-1.3-1.3-1.3H1101.8z M1101.1,309.9
			v8.3c0,0.4,0.3,0.6,0.6,0.6h24.8c0.4,0,0.6-0.3,0.6-0.6v-8.3c0-0.4-0.3-0.6-0.6-0.6h-24.8C1101.4,309.2,1101.1,309.5,1101.1,309.9
			z"/>
		<g>
			<path d="M1063.5,310.4L1063.5,310.4l-1.8,0.9l-0.3-1l2.2-1.2h1.1v9.9h-1.3L1063.5,310.4L1063.5,310.4z"/>
			<path d="M1075,314c0,3.4-1.3,5.2-3.4,5.2c-1.9,0-3.2-1.8-3.3-5.1c0-3.3,1.4-5.2,3.4-5.2C1073.8,309,1075,310.9,1075,314z
				 M1069.7,314.2c0,2.6,0.8,4,2,4c1.4,0,2-1.6,2-4.1c0-2.4-0.6-4-2-4C1070.5,310,1069.7,311.5,1069.7,314.2z"/>
			<path d="M1082.9,314c0,3.4-1.3,5.2-3.4,5.2c-1.9,0-3.2-1.8-3.3-5.1c0-3.3,1.4-5.2,3.4-5.2C1081.7,309,1082.9,310.9,1082.9,314z
				 M1077.5,314.2c0,2.6,0.8,4,2,4c1.4,0,2-1.6,2-4.1c0-2.4-0.6-4-2-4C1078.3,310,1077.5,311.5,1077.5,314.2z"/>
			<path d="M1088.6,311.9c0,2.1-1.1,3.1-2.4,3.1c-1.2,0-2.3-1-2.3-3s1.1-3.1,2.4-3.1C1087.7,309,1088.6,310.1,1088.6,311.9z
				 M1084.9,312c0,1.3,0.4,2.2,1.3,2.2s1.3-0.9,1.3-2.3c0-1.2-0.4-2.2-1.3-2.2C1085.4,309.8,1084.9,310.8,1084.9,312z M1086.1,319.2
				l5.8-10.3h0.9l-5.8,10.3H1086.1z M1095,316.1c0,2.1-1.1,3.1-2.4,3.1c-1.2,0-2.3-1-2.3-3s1.1-3.1,2.4-3.1
				C1094.1,313.1,1095,314.2,1095,316.1z M1091.4,316.1c0,1.3,0.5,2.2,1.3,2.2c0.9,0,1.3-0.9,1.3-2.3c0-1.2-0.4-2.2-1.3-2.2
				C1091.9,313.9,1091.4,314.9,1091.4,316.1z"/>
		</g>
		<g>
			<path d="M873.6,310.4L873.6,310.4l-1.8,0.9l-0.3-1l2.2-1.2h1.1v9.9h-1.3L873.6,310.4L873.6,310.4z"/>
			<path d="M878.5,319.1v-0.8l1.1-1c2.5-2.4,3.7-3.7,3.7-5.2c0-1-0.5-1.9-2-1.9c-0.9,0-1.6,0.5-2.1,0.8l-0.4-0.9
				c0.7-0.6,1.7-1,2.8-1c2.1,0,3,1.5,3,2.9c0,1.8-1.3,3.3-3.4,5.3l-0.8,0.7l0,0h4.5v1.1H878.5z"/>
			<path d="M886.4,312.9c0-0.6,0.4-1,0.9-1s0.9,0.4,0.9,1c0,0.5-0.4,0.9-0.9,0.9C886.8,313.9,886.4,313.4,886.4,312.9z M886.4,318.3
				c0-0.6,0.4-1,0.9-1s0.9,0.4,0.9,1c0,0.5-0.4,0.9-0.9,0.9C886.8,319.2,886.4,318.8,886.4,318.3z"/>
			<path d="M892.4,310.4L892.4,310.4l-1.8,0.9l-0.3-1l2.2-1.2h1.1v9.9h-1.2V310.4z"/>
			<path d="M903,310.1c-0.3,0-0.6,0-1,0.1c-2.1,0.4-3.2,1.9-3.4,3.5l0,0c0.5-0.6,1.3-1.1,2.4-1.1c1.8,0,3,1.3,3,3.2
				c0,1.8-1.2,3.5-3.3,3.5s-3.5-1.6-3.5-4.2c0-2,0.7-3.5,1.7-4.5c0.8-0.8,1.9-1.3,3.2-1.5c0.4-0.1,0.7-0.1,1-0.1v1.1H903z
				 M902.6,315.8c0-1.4-0.8-2.3-2-2.3c-0.8,0-1.6,0.5-1.9,1.2c-0.1,0.2-0.2,0.4-0.2,0.6c0,1.6,0.8,2.8,2.2,2.8
				C901.8,318.2,902.6,317.2,902.6,315.8z"/>
			<path d="M908.8,308.9c0.6-0.1,1.5-0.2,2.5-0.2c1.3,0,2.3,0.3,2.9,0.9c0.6,0.5,0.9,1.2,0.9,2.2c0,0.9-0.3,1.7-0.8,2.2
				c-0.7,0.7-1.8,1.1-3.1,1.1c-0.4,0-0.8,0-1.1-0.1v4.1h-1.3L908.8,308.9L908.8,308.9z M910.2,313.9c0.3,0.1,0.7,0.1,1.1,0.1
				c1.6,0,2.6-0.8,2.6-2.2c0-1.4-1-2-2.4-2c-0.6,0-1,0-1.3,0.1L910.2,313.9L910.2,313.9z"/>
			<path d="M925.5,314.6c-0.1-1.4-0.2-3.2-0.2-4.4l0,0c-0.4,1.2-0.8,2.5-1.3,3.9l-1.8,5h-1l-1.7-4.9c-0.5-1.4-0.9-2.8-1.2-4l0,0
				c0,1.3-0.1,3-0.2,4.5l-0.3,4.4h-1.3l0.7-10.3h1.7l1.8,5c0.4,1.3,0.8,2.4,1,3.5l0,0c0.3-1,0.6-2.2,1.1-3.5l1.8-5h1.7l0.6,10.3
				h-1.3L925.5,314.6z"/>
		</g>
		<path d="M725.7,308c2.7,0,5.4,1.1,7.6,3l-1,1.1c-1.9-1.6-4.2-2.4-6.6-2.4c-2.4,0-4.8,0.9-6.6,2.4l-1-1.1
			C720.3,309,723,308,725.7,308z M725.7,311.9c1.8,0,3.6,0.7,5.1,1.9l-1.1,1.2c-1.1-0.9-2.5-1.4-4-1.4c-1.4,0-2.8,0.5-4,1.4
			l-1.1-1.2C722.1,312.6,723.9,311.9,725.7,311.9z M725.7,315.8c0.8,0,1.7,0.3,2.4,0.9l-2.4,2.7l-2.4-2.7
			C724,316.1,724.8,315.8,725.7,315.8z"/>
		<path d="M672.9,310.5c1.9,0,3.5,1.6,3.5,3.5s-1.6,3.5-3.5,3.5s-3.5-1.6-3.5-3.5S671,310.5,672.9,310.5z M708.5,310.5
			c-1.9,0-3.5,1.6-3.5,3.5s1.6,3.5,3.5,3.5s3.5-1.6,3.5-3.5S710.4,310.5,708.5,310.5z M699.6,310.5c-1.9,0-3.5,1.6-3.5,3.5
			s1.6,3.5,3.5,3.5s3.5-1.6,3.5-3.5S701.5,310.5,699.6,310.5z M690.7,310.5c-1.9,0-3.5,1.6-3.5,3.5s1.6,3.5,3.5,3.5s3.5-1.6,3.5-3.5
			S692.6,310.5,690.7,310.5z M681.8,310.5c-1.9,0-3.5,1.6-3.5,3.5s1.6,3.5,3.5,3.5s3.5-1.6,3.5-3.5S683.7,310.5,681.8,310.5z"/>
	</g>
</g>
</svg>
